<svg width="2935" height="701" xmlns="http://www.w3.org/2000/svg" xmlns:xlink="http://www.w3.org/1999/xlink" xml:space="preserve" overflow="hidden"><g transform="translate(-770 -887)"><path d="M773.5 1052.8C773.5 1027.23 794.229 1006.5 819.8 1006.5L1498.2 1006.5C1523.77 1006.5 1544.5 1027.23 1544.5 1052.8L1544.5 1423.2C1544.5 1448.77 1523.77 1469.5 1498.2 1469.5L819.8 1469.5C794.229 1469.5 773.5 1448.77 773.5 1423.2Z" stroke="#125675" stroke-width="6.875" stroke-miterlimit="8" fill="#FFFFFF" fill-rule="evenodd"/><text font-family="Aptos,Aptos_MSFontService,sans-serif" font-weight="400" font-size="151" transform="matrix(1 0 0 1 864.764 1196)">Describe </text><text font-family="Aptos,Aptos_MSFontService,sans-serif" font-weight="400" font-size="151" transform="matrix(1 0 0 1 1072.55 1362)">DT</text><path d="M1621 1180.2 1702.5 1180.2 1702.5 1142 1784 1237.5 1702.5 1333 1702.5 1294.8 1621 1294.8Z" fill="#AAB6C1" fill-rule="evenodd"/><path d="M1852.5 1052.8C1852.5 1027.23 1873.23 1006.5 1898.8 1006.5L2577.2 1006.5C2602.77 1006.5 2623.5 1027.23 2623.5 1052.8L2623.5 1423.2C2623.5 1448.77 2602.77 1469.5 2577.2 1469.5L1898.8 1469.5C1873.23 1469.5 1852.5 1448.77 1852.5 1423.2Z" stroke="#125675" stroke-width="6.875" stroke-miterlimit="8" fill="#FFFFFF" fill-rule="evenodd"/><text font-family="Aptos,Aptos_MSFontService,sans-serif" font-weight="400" font-size="151" transform="matrix(1 0 0 1 1986.2 1196)">Run the </text><text font-family="Aptos,Aptos_MSFontService,sans-serif" font-weight="400" font-size="151" transform="matrix(1 0 0 1 2151.34 1362)">DT </text><path d="M2700 1180.2 2781.5 1180.2 2781.5 1142 2863 1237.5 2781.5 1333 2781.5 1294.8 2700 1294.8Z" fill="#AAB6C1" fill-rule="evenodd"/><path d="M2931.5 1052.8C2931.5 1027.23 2952.23 1006.5 2977.8 1006.5L3655.2 1006.5C3680.77 1006.5 3701.5 1027.23 3701.5 1052.8L3701.5 1423.2C3701.5 1448.77 3680.77 1469.5 3655.2 1469.5L2977.8 1469.5C2952.23 1469.5 2931.5 1448.77 2931.5 1423.2Z" stroke="#125675" stroke-width="6.875" stroke-miterlimit="8" fill="#FFFFFF" fill-rule="evenodd"/><text font-family="Aptos,Aptos_MSFontService,sans-serif" font-weight="400" font-size="151" transform="matrix(1 0 0 1 3064.03 1196)">Analyze </text><text font-family="Aptos,Aptos_MSFontService,sans-serif" font-weight="400" font-size="151" transform="matrix(1 0 0 1 3092.49 1362)">results</text></g></svg>